<?xml version="1.0" standalone="no"?><!DOCTYPE svg PUBLIC "-//W3C//DTD SVG 1.1//EN" "http://www.w3.org/Graphics/SVG/1.1/DTD/svg11.dtd"><svg t="1617603201280" class="icon" viewBox="0 0 1024 1024" version="1.1" xmlns="http://www.w3.org/2000/svg" p-id="3388" xmlns:xlink="http://www.w3.org/1999/xlink" width="200" height="200"><defs><style type="text/css"></style></defs><path d="M665.52414815 576.07964445l-83.61908148-11.89357037 65.90008888-51.21517038-51.57925925-89.56586667-78.27911112 31.55437038 31.55437037-77.30820741-89.56586666-51.70062222-52.06471111 66.38554074-11.40811853-82.76954074h-103.40124443l-11.89357037 83.61908147-51.21517037-65.90008888-89.56586667 51.70062222 31.55437037 78.27911111-77.30820741-31.55437037-51.70062222 89.56586667 66.38554074 52.06471111L26.54814815 578.74962963v103.15851852l83.61908148 11.89357037-66.02145185 51.21517037 51.70062222 89.56586666 78.27911111-31.55437037-31.55437036 77.30820741 89.56586666 51.70062223 52.06471111-66.38554074 11.40811851 82.76954074h103.40124445l11.89357037-83.61908149 51.21517037 65.90008889 89.56586667-51.70062222-31.55437037-78.27911111 77.3082074 31.55437036 51.70062223-89.56586666-66.38554074-52.06471111 82.76954074-11.40811851v-103.15851852z m-33.98162963 73.66731852l-81.19182222 11.16539258-2.54862222 11.65084445c-1.21362963 5.70405925-2.66998518 11.40811852-4.36906667 16.86945185l-3.39816296 11.1653926 64.80782222 50.72971852-22.08805926 38.22933333-75.85185186-30.8261926-8.00995555 8.8594963c-3.76225185 4.2477037-7.88859259 8.37404445-12.25765925 12.37902222l-8.49540742 7.8885926 30.82619259 76.45866666-38.22933333 22.20942222-50.24426667-64.56509629-11.28675555 3.64088889c-5.5826963 1.82044445-11.28675555 3.2768-16.86945185 4.61179259l-11.40811852 2.66998519-11.52948148 81.5559111h-44.17611852l-11.16539259-81.07045926-11.65084444-2.54862222c-5.70405925-1.21362963-11.40811852-2.66998518-16.86945186-4.36906667l-11.16539259-3.39816295-50.72971852 64.80782222-38.22933333-22.08805927 30.82619258-75.85185185-8.73813333-8.00995555c-4.2477037-3.88361482-8.37404445-7.88859259-12.37902222-12.25765926l-7.88859259-8.4954074-76.45866666 30.82619258-22.3307852-38.3506963 64.5650963-50.24426666-3.64088888-11.28675556c-1.82044445-5.5826963-3.2768-11.28675555-4.61179259-16.86945185l-2.66998519-11.40811851-81.55591111-11.52948149v-44.17611851l81.07045925-11.16539259 2.54862222-11.65084445c1.21362963-5.70405925 2.66998518-11.40811852 4.36906667-16.86945185l3.39816297-11.1653926-64.68645926-50.85108148 22.08805926-38.22933333 75.85185186 30.8261926 8.00995555-8.73813334c3.88361482-4.2477037 7.88859259-8.37404445 12.25765925-12.37902222l8.49540742-7.88859259-30.8261926-76.45866667 38.22933333-22.08805926 50.24426667 64.56509629 11.28675555-3.64088888c5.5826963-1.82044445 11.28675555-3.2768 16.86945186-4.6117926l11.40811852-2.66998518 11.52948148-81.55591111h44.17611852l11.16539259 81.07045926 11.65084444 2.54862222c5.70405925 1.21362963 11.40811852 2.66998518 16.86945185 4.36906666l11.1653926 3.39816297 50.72971852-64.80782222 38.22933333 22.08805925-30.8261926 75.85185186 8.8594963 8.00995556c4.2477037 3.76225185 8.37404445 7.88859259 12.37902222 12.25765925l7.8885926 8.49540741 76.45866667-30.8261926 22.08805926 38.22933334-64.32237038 50.24426666 3.64088889 11.28675556c1.82044445 5.5826963 3.2768 11.28675555 4.61179259 16.86945186l2.66998519 11.40811852 81.55591111 11.52948148v44.17611852z" fill="#ffffff" p-id="3389"></path><path d="M997.45185185 320.00379259l-50.97244444-7.28177777 40.17114074-31.31164445-31.55437037-54.61333334-47.69564445 19.41807408 19.17534815-47.21019259-54.61333333-31.55437037-31.67573333 40.53522963-6.9176889-50.4869926h-62.98737777l-7.28177778 50.97244445-31.31164445-40.17114074-54.61333333 31.55437036 19.17534816 47.69564445-47.2101926-19.17534815-31.55437037 54.61333334 40.53522963 31.67573333-50.48699259 6.91768889V384.56888889l50.97244443 7.28177778-40.17114073 31.31164444 31.55437037 54.61333334L697.68533333 458.6002963l-19.17534815 47.21019259 54.61333334 31.55437036 31.67573333-40.53522962 6.9176889 50.48699259h62.98737777l7.28177778-50.97244444 31.31164445 40.17114074 54.61333333-31.55437037-19.17534816-47.69564445 47.2101926 19.17534815 31.55437037-54.61333333-40.53522964-31.67573334 50.4869926-6.91768888v-63.23010371z m-20.75306667 45.02565926l-49.51608888 6.79632593-1.57771852 7.16041481c-0.72817778 3.51952592-1.69908148 6.91768889-2.66998519 10.31585186l-2.06317037 6.79632592 39.56432593 30.94755555-13.4712889 23.3016889-46.23928888-18.81125927-4.85451852 5.33997037c-2.3058963 2.54862222-4.85451852 5.09724445-7.5245037 7.52450371l-5.2186074 4.85451852 18.81125925 46.60337777-23.30168889 13.4712889-30.58346666-39.3216-6.9176889 2.18453333c-3.39816297 1.09226667-6.91768889 2.06317037-10.31585185 2.79134815l-6.91768888 1.57771852-7.03905185 49.75881481H789.92118518l-6.79632593-49.39472593-7.1604148-1.57771852c-3.51952592-0.72817778-6.91768889-1.69908148-10.31585186-2.66998518l-6.79632592-2.06317037-30.94755556 39.56432592-23.30168889-13.47128888 18.81125926-46.23928889-5.33997037-4.85451853c-2.54862222-2.3058963-5.09724445-4.85451852-7.5245037-7.5245037l-4.85451852-5.2186074-46.60337778 18.81125926-13.59265186-23.30168889 39.3216-30.58346667-2.18453333-6.91768888c-1.09226667-3.39816297-2.06317037-6.91768889-2.79134814-10.31585186L678.26725925 373.64622222l-49.7588148-7.03905185V339.66459259l49.39472592-6.79632592 1.57771852-7.16041482c0.72817778-3.51952592 1.69908148-6.91768889 2.66998519-10.31585185l2.06317037-6.79632592-39.56432593-30.94755556 13.47128889-23.30168889 46.23928889 18.81125926 4.85451852-5.33997037c2.3058963-2.54862222 4.85451852-5.09724445 7.5245037-7.5245037l5.2186074-4.85451852-18.81125925-46.60337778 23.30168888-13.47128889 30.58346667 39.3216 6.91768889-2.18453333c3.39816297-1.09226667 6.91768889-2.06317037 10.31585186-2.79134815l6.91768888-1.57771852 7.03905185-49.75881481H815.40740741l6.79632592 49.39472593 7.16041482 1.5777185c3.51952592 0.72817778 6.91768889 1.69908148 10.31585185 2.6699852l6.79632592 2.06317037 30.94755556-39.56432593 23.30168889 13.47128889-18.81125926 46.23928889 5.33997037 4.85451851c2.54862222 2.3058963 5.09724445 4.85451852 7.5245037 7.52450371l4.85451852 5.21860741 46.60337778-18.81125927 13.47128889 23.30168889-39.3216 30.58346667 2.18453333 6.91768889c1.09226667 3.39816297 2.06317037 6.91768889 2.79134815 10.31585185l1.57771852 6.91768889 49.75881481 7.03905186v26.94257777z" fill="#ffffff" p-id="3390"></path><path d="M580.08462222 173.15460741l-30.58346667-4.36906666 24.15122963-18.81125927-18.93262221-32.768-28.64165927 11.52948149 11.52948148-28.27757038-32.768-18.93262222-19.05398518 24.2725926-4.12634075-30.34074075h-37.86524443l-4.36906667 30.58346667-18.81125926-24.15122964-32.768 18.93262223 11.52948148 28.64165927-28.27757037-11.5294815-18.93262222 32.768 24.27259259 19.0539852-30.34074074 4.12634073v37.86524445l30.58346667 4.36906667-24.15122963 18.81125925 18.93262222 32.768 28.64165926-11.52948147-11.52948148 28.27757037 32.768 18.93262222 19.05398518-24.27259259 4.12634074 30.34074074h37.86524444l4.36906667-30.58346667 18.81125927 24.15122963 32.768-18.93262223-11.52948149-28.64165925 28.27757037 11.52948148 18.93262223-32.768-24.2725926-19.05398519 30.34074074-4.12634074v-37.86524444zM567.58423703 200.09718518l-29.73392592 4.12634074-0.9709037 4.24770371c-0.48545185 2.06317037-0.9709037 4.12634075-1.57771852 6.18951112l-1.21362964 4.12634073 23.78714075 18.56853334-8.13131852 13.95674073-27.79211851-11.28675555-2.91271112 3.2768c-1.33499259 1.57771852-2.91271111 3.03407408-4.49042963 4.49042963l-3.15543704 2.91271112 11.28675557 28.03484443-13.95674075 8.13131852-18.44717037-23.66577778-4.12634074 1.3349926c-2.06317037 0.60681482-4.12634075 1.21362963-6.18951111 1.69908148l-4.12634075 0.9709037-4.2477037 29.85528889h-16.14127408l-4.12634073-29.73392592-4.2477037-0.9709037c-2.06317037-0.48545185-4.12634075-0.9709037-6.18951112-1.57771852l-4.12634073-1.21362963-18.56853334 23.78714073-13.95674074-8.13131852 11.28675556-27.79211851-3.15543704-2.91271111c-1.57771852-1.45635555-3.03407408-2.91271111-4.49042963-4.49042963l-2.91271111-3.15543703-28.03484445 11.28675555-8.13131852-13.95674075 23.66577778-18.44717037-1.33499259-4.12634073c-0.60681482-2.06317037-1.21362963-4.12634075-1.69908148-6.18951112l-0.97090371-4.12634074-29.85528888-4.2477037v-16.14127407L388.20977778 180.67911111l0.9709037-4.2477037c0.48545185-2.06317037 0.9709037-4.12634075 1.57771852-6.18951111l1.21362963-4.12634075-23.78714074-18.56853333 8.13131852-13.95674074 27.79211851 11.28675555 2.91271111-3.15543703c1.45635555-1.57771852 2.91271111-3.03407408 4.49042964-4.49042963l3.15543703-2.91271112-11.28675555-28.03484443L417.33688889 98.1522963l18.44717036 23.66577778 4.12634075-1.3349926c2.06317037-0.60681482 4.12634075-1.21362963 6.18951111-1.69908148l4.12634074-0.9709037 4.2477037-29.85528889H470.73659259l4.12634074 29.73392592 4.2477037 0.9709037c2.06317037 0.48545185 4.12634075 0.9709037 6.18951112 1.57771852l4.12634074 1.21362963 18.56853333-23.78714073 13.95674075 8.13131852-11.28675556 27.79211851 3.2768 2.91271111c1.57771852 1.33499259 3.03407408 2.91271111 4.49042962 4.49042963l2.91271112 3.15543703 28.03484444-11.28675555 8.13131852 13.95674075-23.66577778 18.44717037 1.33499259 4.12634073c0.60681482 2.06317037 1.21362963 4.12634075 1.69908149 6.18951112l0.9709037 4.12634074 29.85528889 4.2477037V200.09718518z" fill="#ffffff" p-id="3391"></path><path d="M346.09682963 628.9938963m-65.90008888 0a65.90008889 65.90008889 0 1 0 131.80017777 0 65.90008889 65.90008889 0 1 0-131.80017777 0Z" p-id="3392" fill="#ffffff"></path><path d="M802.6642963 352.28634075m-65.90008889 0a65.90008889 65.90008889 0 1 0 131.80017777 0 65.90008889 65.90008889 0 1 0-131.80017777 0Z" p-id="3393" fill="#ffffff"></path><path d="M463.09072592 192.45131852m-40.53522962 0a40.53522963 40.53522963 0 1 0 81.07045925 0 40.53522963 40.53522963 0 1 0-81.07045925 0Z" p-id="3394" fill="#ffffff"></path></svg>