<?xml version="1.0" standalone="no"?><!DOCTYPE svg PUBLIC "-//W3C//DTD SVG 1.1//EN" "http://www.w3.org/Graphics/SVG/1.1/DTD/svg11.dtd"><svg t="1617603163758" class="icon" viewBox="0 0 1024 1024" version="1.1" xmlns="http://www.w3.org/2000/svg" p-id="3202" xmlns:xlink="http://www.w3.org/1999/xlink" width="200" height="200"><defs><style type="text/css"></style></defs><path d="M993.536 513.35466667c0-55.296-79.37066667-95.456-192-119.72266667 62.45333333-96.768 90.22933333-181.28 51.2-220.36266667s-123.57333333-11.30666667-220.352 51.136c-24.26666667-112.64-64.43733333-192-119.73333333-192s-95.44533333 79.36-119.712 192c-96.75733333-62.44266667-181.25866667-90.208-220.37333334-51.12533333S161.184 296.864 223.63733333 393.6c-112.65066667 24.26666667-192 64.42666667-192 119.72266667s79.37066667 95.46666667 192 119.73333333c-62.44266667 96.768-90.21866667 181.26933333-51.136 220.352C184.88533333 865.83466667 201.81333333 871.46666667 222.28266667 871.46666667c44.07466667 0 104.48-26.592 170.57066666-69.23733334 24.26666667 112.66133333 64.43733333 192 119.72266667 192s95.46666667-79.37066667 119.73333333-192c66.13333333 42.66666667 126.48533333 69.216 170.54933334 69.216 20.448 0 37.408-5.67466667 49.80266666-18.06933333C891.73333333 814.35733333 864 729.856 801.52533333 633.088 914.13333333 608.82133333 993.536 568.65066667 993.536 513.35466667zM801.216 199.46666667c8.704 0 15.22133333 2.00533333 19.2 6.00533333 17.94133333 17.94133333-4.34133333 85.93066667-67.30666667 179.008-31.584-5.184-64.992-9.248-99.43466666-12.23466667-2.976-34.464-7.06133333-67.89333333-12.24533334-99.49866666 72.30933333-48.88533333 129.48266667-73.28 159.78666667-73.28zM614.13333333 513.35466667c0 14.26133333-0.256 28.10666667-0.59733333 41.80266666-9.45066667 9.93066667-19.06133333 19.904-29.152 29.99466667s-20.11733333 19.712-29.99466667 29.16266667c-13.696 0.33066667-27.552 0.58666667-41.81333333 0.58666666s-28.11733333-0.256-41.81333333-0.58666666c-9.93066667-9.45066667-19.904-19.072-29.99466667-29.16266667s-19.69066667-20.04266667-29.13066667-29.96266667c-0.34133333-13.70666667-0.59733333-27.56266667-0.59733333-41.83466666s0.256-28.128 0.59733333-41.83466667c9.44-9.92 19.05066667-19.88266667 29.13066667-29.97333333s19.98933333-19.73333333 29.86666667-29.14133334c13.73866667-0.33066667 27.63733333-0.58666667 41.952-0.58666666s28.20266667 0.256 41.952 0.58666666q14.80533333 14.112 29.86666666 29.14133334c10.09066667 10.09066667 19.70133333 20.064 29.152 29.99466666 0.32 13.696 0.576 27.552 0.576 41.81333334zM572.90666667 367.34933333c-8.46933333-7.88266667-16.94933333-15.712-25.504-23.33866666q27.104-22.592 52.55466666-41.6 4.52266667 31.44533333 7.78666667 66.54933333-17.33333333-0.96-34.83733333-1.61066667z m-120.65066667 0q-17.48266667 0.61866667-34.82666667 1.61066667c2.13333333-23.46666667 4.768-45.57866667 7.776-66.528q25.41866667 19.02933333 52.55466667 41.6c-8.55466667 7.616-17.04533333 15.43466667-25.49333333 23.31733333z m-85.68533333 85.67466667c-7.88266667 8.53333333-15.712 16.97066667-23.36 25.6q-22.592-27.136-41.6-52.58666667c20.96-3.008 43.12533333-5.64266667 66.56-7.776q-0.97066667 17.26933333-1.6 34.76266667z m0 120.66133333q0.64 17.48266667 1.62133333 34.83733334-35.2-3.2-66.57066667-7.78666667 19.04-25.44 41.6-52.59733333c7.63733333 8.56533333 15.46666667 17.056 23.34933334 25.54666666z m85.62133333 85.68533334q12.8 11.86133333 25.6 23.33866666-27.136 22.60266667-52.58666667 41.6-4.53333333-31.424-7.78666666-66.53866666 17.30133333 0.98133333 34.77333333 1.6z m120.75733333 0q17.472-0.61866667 34.784-1.61066667c-2.13333333 23.46666667-4.768 45.57866667-7.776 66.53866667q-25.44-19.06133333-52.61866666-41.6 12.864-11.488 25.61066666-23.328z m85.65333334-85.71733334c7.88266667-8.46933333 15.70133333-16.96 23.33866666-25.51466666q22.61333333 27.136 41.6 52.59733333c-20.94933333 3.008-43.11466667 5.64266667-66.54933333 7.776q0.98133333-17.33333333 1.61066667-34.85866667z m0-120.59733333q-0.64-17.51466667-1.62133334-34.848c23.46666667 2.13333333 45.58933333 4.768 66.53866667 7.776q-19.06133333 25.44-41.6 52.58666667c-7.616-8.56533333-15.43466667-17.04533333-23.31733333-25.51466667z m-146.02666667-375.09333333c25.36533333 0 57.71733333 63.904 79.008 174.336-26.016 18.67733333-52.512 39.296-78.99733333 61.568-26.496-22.272-52.98133333-42.89066667-79.008-61.57866667 21.30133333-110.42133333 53.64266667-174.32533333 78.99733333-174.32533333zM204.704 205.48266667c4.01066667-4 10.50666667-6.00533333 19.2-6.00533334 30.304 0 87.46666667 24.384 159.78666667 73.29066667-5.184 31.59466667-9.26933333 65.06666667-12.24533334 99.488-34.37866667 2.976-67.84 7.05066667-99.44533333 12.23466667-62.93333333-93.07733333-85.22666667-161.06666667-67.296-179.008zM77.184 513.35466667c0-25.35466667 63.904-57.696 174.336-78.99733334 18.688 26.016 39.30666667 52.50133333 61.57866667 78.99733334-22.28266667 26.496-42.90133333 52.98133333-61.58933334 79.008-110.432-21.29066667-174.32533333-53.64266667-174.32533333-79.008z m127.52 307.86133333c-17.92-17.93066667 4.352-85.92 67.30666667-178.98666667 31.584 5.184 65.01333333 9.25866667 99.46666666 12.24533334 2.98666667 34.44266667 7.06133333 67.86133333 12.24533334 99.44533333-93.04533333 62.944-161.04533333 85.25866667-179.01866667 67.296z m307.872 127.52c-25.344 0-57.67466667-63.86133333-78.93333333-174.21866667 25.99466667-18.67733333 52.49066667-39.36 78.93333333-61.61066666 26.48533333 22.26133333 52.992 42.944 78.99733333 61.632-21.312 110.34666667-53.64266667 174.19733333-78.99733333 174.19733333z m307.86133333-127.52c-17.94133333 17.87733333-85.92-4.384-178.976-67.31733333 5.184-31.57333333 9.248-64.992 12.23466667-99.43466667 34.44266667-2.976 67.86133333-7.05066667 99.44533333-12.23466667 62.95466667 93.06666667 85.25866667 161.056 67.296 178.98666667z m-46.80533333-228.85333333c-18.67733333-26.02666667-39.30666667-52.512-61.57866667-79.008 22.272-26.496 42.89066667-52.98133333 61.568-78.99733334 110.44266667 21.33333333 174.336 53.64266667 174.336 78.99733334s-63.89333333 57.71733333-174.32533333 79.008z" p-id="3203" fill="#ffffff"></path></svg>